<svg id="pencil" xmlns="http://www.w3.org/2000/svg" width="20" height="20" viewBox="0 0 20 20">
  <g id="Group_559">
    <path id="Path_383" d="M19.378,2.434,17.565.621a2.126,2.126,0,0,0-3,0L1.078,14.106a.6.6,0,0,0-.162.308L.01,19.307a.586.586,0,0,0,.683.683l4.893-.906a.6.6,0,0,0,.308-.162L19.378,5.437A2.123,2.123,0,0,0,19.378,2.434ZM1.317,18.683l.548-2.96,2.412,2.412Zm4.162-1L2.321,14.52,13.852,2.988l3.159,3.159ZM18.549,4.609l-.709.709L14.681,2.159l.709-.709a.953.953,0,0,1,1.346,0l1.812,1.812A.951.951,0,0,1,18.549,4.609Z" transform="translate(0 0)"/>
  </g>
</svg>
